{
	"asset":{
		"generator":"Khronos glTF Blender I/O v3.6.27",
		"version":"2.0"
	},
	"scene":0,
	"scenes":[
		{
			"name":"Scene",
			"nodes":[
				6,
				7
			]
		}
	],
	"nodes":[
		{
			"mesh":0,
			"name":"Object_6",
			"translation":[
				0,
				3.814697265625e-06,
				0
			]
		},
		{
			"children":[
				0
			],
			"name":"Windturbine Blades_1",
			"scale":[
				0.40057528018951416,
				0.40057528018951416,
				0.471651166677475
			],
			"translation":[
				0,
				13.161629676818848,
				0.563713550567627
			]
		},
		{
			"mesh":1,
			"name":"Object_4"
		},
		{
			"children":[
				2
			],
			"name":"Windturbine Support_0",
			"scale":[
				0.40057528018951416,
				0.40057528018951416,
				0.471651166677475
			]
		},
		{
			"children":[
				1,
				3
			],
			"name":"GLTF_SceneRootNode",
			"rotation":[
				0.70710688829422,
				0,
				0,
				0.7071066498756409
			]
		},
		{
			"children":[
				4
			],
			"name":"root"
		},
		{
			"children":[
				5
			],
			"name":"Sketchfab_model",
			"rotation":[
				-0.70710688829422,
				0,
				0,
				0.7071066498756409
			]
		},
		{
			"mesh":2,
			"name":"Cube"
		}
	],
	"materials":[
		{
			"doubleSided":true,
			"name":"Windmill",
			"pbrMetallicRoughness":{
				"baseColorTexture":{
					"index":0
				},
				"metallicFactor":0.3901081681251526,
				"roughnessFactor":0.5
			}
		},
		{
			"doubleSided":true,
			"name":"Material",
			"pbrMetallicRoughness":{
				"baseColorFactor":[
					0.800000011920929,
					0.800000011920929,
					0.800000011920929,
					1
				],
				"metallicFactor":0,
				"roughnessFactor":0.5
			}
		}
	],
	"meshes":[
		{
			"name":"Object_1",
			"primitives":[
				{
					"attributes":{
						"POSITION":0,
						"NORMAL":1,
						"TEXCOORD_0":2
					},
					"indices":3,
					"material":0
				}
			]
		},
		{
			"name":"Object_0",
			"primitives":[
				{
					"attributes":{
						"POSITION":4,
						"NORMAL":5,
						"TEXCOORD_0":6
					},
					"indices":7,
					"material":0
				}
			]
		},
		{
			"name":"Cube",
			"primitives":[
				{
					"attributes":{
						"POSITION":8,
						"NORMAL":9,
						"TEXCOORD_0":10
					},
					"indices":11,
					"material":1
				}
			]
		}
	],
	"textures":[
		{
			"sampler":0,
			"source":0
		}
	],
	"images":[
		{
			"mimeType":"image/png",
			"name":"Windmill_baseColor",
			"uri":"windturbinetexture/Windmill_baseColor.png"
		}
	],
	"accessors":[
		{
			"bufferView":0,
			"componentType":5126,
			"count":1108,
			"max":[
				14.652009963989258,
				16.841712951660156,
				2.2366676330566406
			],
			"min":[
				-14.542757034301758,
				-8.621158599853516,
				-1.1920928955078125e-07
			],
			"type":"VEC3"
		},
		{
			"bufferView":1,
			"componentType":5126,
			"count":1108,
			"type":"VEC3"
		},
		{
			"bufferView":2,
			"componentType":5126,
			"count":1108,
			"type":"VEC2"
		},
		{
			"bufferView":3,
			"componentType":5123,
			"count":4056,
			"type":"SCALAR"
		},
		{
			"bufferView":4,
			"componentType":5126,
			"count":155,
			"max":[
				1.170703649520874,
				33.85681915283203,
				1.4206569194793701
			],
			"min":[
				-1.170703649520874,
				0,
				-1.0910956859588623
			],
			"type":"VEC3"
		},
		{
			"bufferView":5,
			"componentType":5126,
			"count":155,
			"type":"VEC3"
		},
		{
			"bufferView":6,
			"componentType":5126,
			"count":155,
			"type":"VEC2"
		},
		{
			"bufferView":7,
			"componentType":5123,
			"count":384,
			"type":"SCALAR"
		},
		{
			"bufferView":8,
			"componentType":5126,
			"count":24,
			"max":[
				1,
				1,
				1
			],
			"min":[
				-1,
				-1,
				-1
			],
			"type":"VEC3"
		},
		{
			"bufferView":9,
			"componentType":5126,
			"count":24,
			"type":"VEC3"
		},
		{
			"bufferView":10,
			"componentType":5126,
			"count":24,
			"type":"VEC2"
		},
		{
			"bufferView":11,
			"componentType":5123,
			"count":36,
			"type":"SCALAR"
		}
	],
	"bufferViews":[
		{
			"buffer":0,
			"byteLength":13296,
			"byteOffset":0,
			"target":34962
		},
		{
			"buffer":0,
			"byteLength":13296,
			"byteOffset":13296,
			"target":34962
		},
		{
			"buffer":0,
			"byteLength":8864,
			"byteOffset":26592,
			"target":34962
		},
		{
			"buffer":0,
			"byteLength":8112,
			"byteOffset":35456,
			"target":34963
		},
		{
			"buffer":0,
			"byteLength":1860,
			"byteOffset":43568,
			"target":34962
		},
		{
			"buffer":0,
			"byteLength":1860,
			"byteOffset":45428,
			"target":34962
		},
		{
			"buffer":0,
			"byteLength":1240,
			"byteOffset":47288,
			"target":34962
		},
		{
			"buffer":0,
			"byteLength":768,
			"byteOffset":48528,
			"target":34963
		},
		{
			"buffer":0,
			"byteLength":288,
			"byteOffset":49296,
			"target":34962
		},
		{
			"buffer":0,
			"byteLength":288,
			"byteOffset":49584,
			"target":34962
		},
		{
			"buffer":0,
			"byteLength":192,
			"byteOffset":49872,
			"target":34962
		},
		{
			"buffer":0,
			"byteLength":72,
			"byteOffset":50064,
			"target":34963
		}
	],
	"samplers":[
		{
			"magFilter":9729,
			"minFilter":9987
		}
	],
	"buffers":[
		{
			"byteLength":50136,
			"uri":"windturbinetexture.bin"
		}
	]
}
